<?xml version="1.0" encoding="UTF-8" standalone="no"?>
<svg width="795px" height="323px" viewBox="0 0 795 323" version="1.1" xmlns="http://www.w3.org/2000/svg" xmlns:xlink="http://www.w3.org/1999/xlink">
    <!-- Generator: Sketch 48.2 (47327) - http://www.bohemiancoding.com/sketch -->
    <title>Group 2</title>
    <desc>Created with Sketch.</desc>
    <defs></defs>
    <g id="Page-1" stroke="none" stroke-width="1" fill="none" fill-rule="evenodd">
        <g id="Group-2" fill="#CFC633">
            <g id="Group" transform="translate(40.000000, 247.000000)">
                <path d="M411.574,2.148 C407.273,13.449 400.473,31.949 394.574,48.449 C387.574,68.148 384.574,73.547 380.473,73.547 C379.473,73.547 378.672,73.949 378.672,74.547 C378.672,75.148 382.973,75.547 389.672,75.547 C395.773,75.547 400.672,75.148 400.672,74.648 C400.672,74.148 399.672,73.547 398.473,73.348 C394.973,72.848 395.172,68.449 398.973,57.547 L402.172,48.047 L412.273,47.75 L422.375,47.449 L427.074,59.75 C431.172,70.547 431.574,72.148 430.172,73.148 C429.375,73.75 428.672,74.547 428.672,74.949 C428.672,75.25 433.875,75.547 440.172,75.547 C451.172,75.547 454.973,74.449 448.773,73.047 C443.074,71.848 442.773,71.148 422.172,18.848 C418.473,9.348 414.773,1.047 414.074,0.449 C412.973,-0.453 412.473,-0.051 411.574,2.148 Z M416.172,29.547 C418.074,35.25 419.672,40.348 419.672,40.75 C419.672,41.148 416.273,41.547 412.074,41.547 C406.375,41.547 404.574,41.25 404.973,40.25 C405.172,39.648 406.875,34.449 408.773,28.848 C410.574,23.25 412.172,18.75 412.375,18.949 C412.574,19.148 414.273,23.949 416.172,29.547 Z" id="Fill-1"></path>
                <path d="M714.574,2.148 C710.273,13.449 703.473,31.949 697.574,48.449 C690.574,68.148 687.574,73.547 683.473,73.547 C682.473,73.547 681.672,73.949 681.672,74.547 C681.672,75.148 685.973,75.547 692.672,75.547 C698.773,75.547 703.672,75.148 703.672,74.648 C703.672,74.148 702.672,73.547 701.473,73.348 C697.973,72.848 698.172,68.449 701.973,57.547 L705.172,48.047 L715.273,47.75 L725.375,47.449 L730.074,59.75 C734.172,70.547 734.574,72.148 733.172,73.148 C732.375,73.75 731.672,74.547 731.672,74.949 C731.672,75.25 736.875,75.547 743.172,75.547 C754.172,75.547 757.973,74.449 751.773,73.047 C746.074,71.848 745.773,71.148 725.172,18.848 C721.473,9.348 717.773,1.047 717.074,0.449 C715.973,-0.453 715.473,-0.051 714.574,2.148 Z M719.172,29.547 C721.074,35.25 722.672,40.348 722.672,40.75 C722.672,41.148 719.273,41.547 715.074,41.547 C709.375,41.547 707.574,41.25 707.973,40.25 C708.172,39.648 709.875,34.449 711.773,28.848 C713.574,23.25 715.172,18.75 715.375,18.949 C715.574,19.148 717.273,23.949 719.172,29.547 Z" id="Fill-3"></path>
                <path d="M124.172,1.547 C123.574,2.449 125.375,3.547 129.973,4.949 C131.574,5.449 131.672,7.949 131.672,38.047 L131.672,70.547 L128.672,72.449 C127.074,73.449 125.973,74.547 126.375,74.848 C127.273,75.848 166.473,75.75 166.973,74.75 C167.172,74.348 167.672,71.25 168.074,67.75 C168.875,61.047 167.773,59.547 165.672,64.547 C163.973,68.648 160.574,70.547 154.672,70.547 C149.172,70.547 144.273,68.547 143.273,66.047 C142.973,65.148 142.672,58.547 142.672,51.449 L142.672,38.547 L148.973,38.547 C156.375,38.547 159.672,39.348 159.672,41.047 C159.672,41.75 160.473,43.348 161.574,44.648 C163.375,46.848 163.473,46.848 163.973,44.949 C164.273,43.949 164.875,40.148 165.172,36.648 L165.875,30.25 L163.574,31.047 C162.273,31.547 156.973,32.047 151.973,32.25 L142.672,32.648 L142.672,6.547 L149.973,6.547 C157.875,6.547 161.273,8.047 161.875,11.75 C162.773,17.75 166.672,10.648 166.672,3.148 L166.672,0.547 L145.773,0.547 C132.875,0.547 124.574,0.949 124.172,1.547 Z" id="Fill-5"></path>
                <path d="M247.172,2.449 C246.875,3.25 246.375,7.25 245.973,11.449 L245.375,19.047 L251.473,13.348 C258.672,6.648 259.973,6.348 275.273,6.75 L286.375,7.047 L268.773,33.547 C250.074,61.648 242.473,74.047 243.473,74.949 C244.375,75.949 299.473,75.648 300.074,74.648 C300.473,74.148 300.273,73.547 299.773,73.348 C299.074,73.148 299.074,71.547 299.672,69.047 C300.875,63.848 300.973,58.547 299.773,58.547 C299.273,58.547 297.375,60.348 295.672,62.547 C290.473,69.148 288.773,69.648 271.574,69.348 L256.574,69.047 L264.273,58.047 C282.574,31.949 300.773,3.25 299.672,2.148 C299.375,1.949 287.574,1.547 273.473,1.348 C252.074,1.148 247.574,1.25 247.172,2.449 Z" id="Fill-6"></path>
                <path d="M0.875,2.75 C1.172,3.449 2.375,4.25 3.773,4.348 C8.672,5.148 8.672,4.75 8.672,37.949 C8.672,64.547 8.473,69.449 7.074,71.348 C6.273,72.547 4.875,73.547 4.074,73.547 C3.273,73.547 2.672,73.949 2.672,74.547 C2.672,75.148 10.773,75.547 25.074,75.547 L47.375,75.547 L48.074,71.75 C48.875,66.449 48.773,60.547 47.875,60.547 C47.375,60.547 46.074,61.949 44.773,63.648 C40.172,69.949 31.773,72.348 25.172,69.348 C19.973,67.047 19.672,65.047 19.672,34.848 C19.672,19.547 20.074,6.348 20.672,5.547 C21.172,4.75 22.574,4.047 23.875,4.047 C25.172,3.949 26.273,3.449 26.473,2.949 C26.574,2.449 21.074,1.949 13.574,1.75 C3.273,1.547 0.574,1.75 0.875,2.75 Z" id="Fill-7"></path>
                <path d="M535.172,2.75 C534.875,3.449 534.574,19.148 534.473,37.547 L534.172,71.047 L530.973,72.449 C529.172,73.25 527.672,74.25 527.672,74.75 C527.672,75.148 533.375,75.547 540.273,75.547 C550.875,75.547 552.773,75.348 551.773,74.148 C551.172,73.449 549.273,72.547 547.672,72.148 C545.773,71.848 544.273,70.75 543.773,69.348 C542.574,66.047 541.375,20.25 542.473,20.648 C542.973,20.848 549.672,28.047 557.375,36.547 C577.875,59.25 596.473,77.148 597.973,75.648 C598.773,74.848 599.273,64.75 599.473,40.547 L599.875,6.648 L602.875,5.648 C604.473,5.047 605.574,4.148 605.172,3.547 C604.375,2.148 582.672,2.148 582.672,3.547 C582.672,4.148 584.074,4.848 585.672,5.25 C591.473,6.348 591.672,7.547 591.672,34.047 L591.672,58.047 L586.375,52.547 C583.574,49.547 571.574,36.75 559.773,24.25 C547.973,11.75 537.672,1.547 536.973,1.547 C536.172,1.547 535.375,2.148 535.172,2.75 Z" id="Fill-8"></path>
            </g>
            <g id="caderno_vetor">
                <path d="M389.63004,94 C388.585923,94 387.531009,93.6976311 386.605664,93.0703766 C385.55075,92.3519825 278.347894,21.7016762 45.0854496,44.8500494 C42.096705,45.1792241 39.5085472,43.0047416 39.2159353,40.0807704 C38.9190044,37.1535826 41.0698639,34.5427025 44.017578,34.251056 C164.554251,22.2699581 251.398444,34.5566415 308.27529,49.9474308 C175.502904,-1.99782331 7.89026421,12.41402 5.85493779,12.5973713 C2.90074518,12.8343341 0.295311414,10.7113188 0.0232147264,7.7809142 C-0.24996171,4.85050964 1.91925355,2.25678529 4.87020692,1.98658333 C7.38062279,1.76784841 257.517381,-19.7882633 392.923274,84.4668032 C395.214501,86.2316937 395.678793,89.4837673 393.97063,91.8115786 C392.923274,93.2397889 391.288534,94 389.63004,94" id="Fill-1"></path>
                <path d="M721.646754,144 L475.354324,144 C472.399099,144 470,141.759887 470,138.999497 C470,136.240113 472.399099,134 475.354324,134 L721.646754,134 C724.601979,134 727,136.240113 727,138.999497 C727,141.759887 724.601979,144 721.646754,144" id="Fill-3"></path>
                <path d="M475.366377,145 C472.541041,145 470.169835,142.795393 470.008727,139.942879 C469.841132,136.993341 472.107456,134.462086 475.073355,134.294989 L729.325463,120.014094 C732.011316,119.797406 734.822596,122.106584 734.991273,125.06259 C735.158868,128.012128 732.892544,130.543383 729.926645,130.710481 L475.673455,144.992454 C475.577223,145 475.471259,145 475.366377,145" id="Fill-4"></path>
                <path d="M68.1010203,144.49263 C65.1436614,144.49263 62.7447829,142.086675 62.7447829,139.121925 L62.7447829,59.1709321 C62.7447829,56.2072622 65.1436614,53.8023879 68.1010203,53.8023879 C71.0583792,53.8023879 73.4572576,56.2072622 73.4572576,59.1709321 L73.4572576,139.121925 C73.4572576,142.086675 71.0583792,144.49263 68.1010203,144.49263" id="Fill-5"></path>
                <path d="M374.589276,104.515513 C373.069088,104.515513 371.562916,103.871331 370.502019,102.620796 C368.588307,100.355351 368.863234,96.971233 371.119797,95.0516569 C376.329407,90.6234457 501.840883,-12.7980394 790.245369,34.1840177 C793.168227,34.6595883 795.148784,37.4168173 794.674399,40.3437385 C794.206483,43.2728213 791.494942,45.2756223 788.531114,44.7827582 C505.014949,-1.4264966 379.283531,102.186298 378.052287,103.242281 C377.044219,104.095065 375.812974,104.515513 374.589276,104.515513" id="Fill-7"></path>
                <path d="M380.015593,187 C338.607178,187 306.703712,169.074229 302.631548,144.49263 L60.3631548,144.49263 C57.4801881,144.49263 55.1114978,142.199083 55.0112301,139.311072 L50.8441896,20.5859395 C50.7396093,17.6211889 53.0511577,15.1352514 56.0085166,15.0304096 C58.8537482,14.8250496 61.4445369,17.2472174 61.5491172,20.2087255 L65.5350289,133.7523 L307.547902,133.7523 C310.50526,133.7523 312.904139,136.158255 312.904139,139.121925 C312.904139,159.950838 342.382851,176.26075 380.015593,176.26075 C416.426795,176.26075 447.185268,158.432255 447.185268,137.33313 C447.185268,134.36838 449.585224,131.963505 452.541505,131.963505 C455.498864,131.963505 457.898821,134.36838 457.898821,137.33313 C457.898821,165.186439 423.687041,187 380.015593,187" id="Fill-8"></path>
                <path d="M379.723077,175 C353.384296,175 331.921135,164.288311 326.317324,148.33788 C325.311985,145.486512 326.774888,142.350117 329.583315,141.32822 C332.384134,140.291961 335.478403,141.793321 336.482654,144.651318 C340.431189,155.877823 358.615317,164.024275 379.723077,164.024275 C399.858105,164.024275 417.902029,155.755195 422.626576,144.365187 C423.77864,141.564637 426.960944,140.263237 429.695464,141.434276 C432.444114,142.614153 433.72986,145.83009 432.577797,148.624011 C426.036032,164.4021 404.796762,175 379.723077,175" id="Fill-10"></path>
            </g>
        </g>
    </g>
</svg>